<svg width="800" height="40" viewBox="0 0 800 40" xmlns="http://www.w3.org/2000/svg"><style>.bar { fill: #238636; opacity: 0.6; } .label { font-family: monospace; font-size: 10px; fill: #8b949e; }</style><rect x="0.0" y="30.0" width="53.142857142857146" height="0.0" rx="2" class="bar" style="opacity: 0.2" /><rect x="57.142857142857146" y="30.0" width="53.142857142857146" height="0.0" rx="2" class="bar" style="opacity: 0.2" /><rect x="114.28571428571429" y="30.0" width="53.142857142857146" height="0.0" rx="2" class="bar" style="opacity: 0.2" /><rect x="171.42857142857144" y="30.0" width="53.142857142857146" height="0.0" rx="2" class="bar" style="opacity: 0.2" /><rect x="228.57142857142858" y="30.0" width="53.142857142857146" height="0.0" rx="2" class="bar" style="opacity: 0.2" /><rect x="285.7142857142857" y="30.0" width="53.142857142857146" height="0.0" rx="2" class="bar" style="opacity: 0.2" /><rect x="342.8571428571429" y="30.0" width="53.142857142857146" height="0.0" rx="2" class="bar" style="opacity: 0.2" /><rect x="400.0" y="30.0" width="53.142857142857146" height="0.0" rx="2" class="bar" style="opacity: 0.2" /><rect x="457.14285714285717" y="30.0" width="53.142857142857146" height="0.0" rx="2" class="bar" style="opacity: 0.2" /><rect x="514.2857142857143" y="5.0" width="53.142857142857146" height="25.0" rx="2" class="bar" style="opacity: 1.0" /><rect x="571.4285714285714" y="22.307692307692307" width="53.142857142857146" height="7.6923076923076925" rx="2" class="bar" style="opacity: 0.4461538461538462" /><rect x="628.5714285714286" y="30.0" width="53.142857142857146" height="0.0" rx="2" class="bar" style="opacity: 0.2" /><rect x="685.7142857142858" y="20.384615384615383" width="53.142857142857146" height="9.615384615384617" rx="2" class="bar" style="opacity: 0.5076923076923077" /><rect x="742.8571428571429" y="14.615384615384613" width="53.142857142857146" height="15.384615384615385" rx="2" class="bar" style="opacity: 0.6923076923076923" /><text x="0" y="40" class="label">14D_ACTIVITY_TRANSIT</text><text x="740" y="40" class="label">LIVE_SIGNAL</text></svg>