<svg width="800" height="220" viewBox="0 0 800 220" fill="none" xmlns="http://www.w3.org/2000/svg">
  <defs>
    <filter id="flicker">
      <feMerge>
        <feMergeNode in="SourceGraphic" />
      </feMerge>
      <animate attributeName="opacity" values="1;0.7;1;0.8;1" dur="0.15s" repeatCount="indefinite" />
    </filter>
  </defs>
    <g transform="translate(10,10)" filter="url(#flicker)">
      <rect width="250" height="95" rx="12" fill="#0d1117" stroke="#30363d" stroke-width="1" />
      <rect x="10" y="10" width="40" height="40" rx="8" fill="#00f3ff" fill-opacity="0.1" />
      <text x="30" y="36" text-anchor="middle" font-family="monospace" font-size="14" font-weight="bold" fill="#00f3ff">🦀</text>
      <text x="60" y="30" font-family="sans-serif" font-size="16" font-weight="bold" fill="#ffffff">Rust</text>
      <text x="60" y="50" font-family="sans-serif" font-size="11" fill="#8b949e">Systems, Performance</text>
      <rect x="60" y="65" width="170" height="4" rx="2" fill="#161b22" />
      <rect x="60" y="65" width="150" height="4" rx="2" fill="#00f3ff" opacity="0.6">
        <animate attributeName="width" values="150;130;150;145;150" dur="0.2s" repeatCount="indefinite" />
      </rect>
    </g>
    <g transform="translate(270,10)" >
      <rect width="250" height="95" rx="12" fill="#0d1117" stroke="#30363d" stroke-width="1" />
      <rect x="10" y="10" width="40" height="40" rx="8" fill="#3178c6" fill-opacity="0.1" />
      <text x="30" y="36" text-anchor="middle" font-family="monospace" font-size="14" font-weight="bold" fill="#3178c6">TS</text>
      <text x="60" y="30" font-family="sans-serif" font-size="16" font-weight="bold" fill="#ffffff">TypeScript</text>
      <text x="60" y="50" font-family="sans-serif" font-size="11" fill="#8b949e">Full-stack, Type-safe</text>
      <rect x="60" y="65" width="170" height="4" rx="2" fill="#161b22" />
      <rect x="60" y="65" width="150" height="4" rx="2" fill="#3178c6" opacity="0.6">
        <animate attributeName="width" values="150;130;150;145;150" dur="0.2s" repeatCount="indefinite" />
      </rect>
    </g>
    <g transform="translate(530,10)" filter="url(#flicker)">
      <rect width="250" height="95" rx="12" fill="#0d1117" stroke="#30363d" stroke-width="1" />
      <rect x="10" y="10" width="40" height="40" rx="8" fill="#4ade80" fill-opacity="0.1" />
      <text x="30" y="36" text-anchor="middle" font-family="monospace" font-size="14" font-weight="bold" fill="#4ade80">PY</text>
      <text x="60" y="30" font-family="sans-serif" font-size="16" font-weight="bold" fill="#ffffff">Python</text>
      <text x="60" y="50" font-family="sans-serif" font-size="11" fill="#8b949e">Automation, Data Ops</text>
      <rect x="60" y="65" width="170" height="4" rx="2" fill="#161b22" />
      <rect x="60" y="65" width="150" height="4" rx="2" fill="#4ade80" opacity="0.6">
        <animate attributeName="width" values="150;130;150;145;150" dur="0.2s" repeatCount="indefinite" />
      </rect>
    </g>
    <g transform="translate(10,115)" >
      <rect width="250" height="95" rx="12" fill="#0d1117" stroke="#30363d" stroke-width="1" />
      <rect x="10" y="10" width="40" height="40" rx="8" fill="#00add8" fill-opacity="0.1" />
      <text x="30" y="36" text-anchor="middle" font-family="monospace" font-size="14" font-weight="bold" fill="#00add8">GO</text>
      <text x="60" y="30" font-family="sans-serif" font-size="16" font-weight="bold" fill="#ffffff">Go</text>
      <text x="60" y="50" font-family="sans-serif" font-size="11" fill="#8b949e">Cloud, Concurrency</text>
      <rect x="60" y="65" width="170" height="4" rx="2" fill="#161b22" />
      <rect x="60" y="65" width="150" height="4" rx="2" fill="#00add8" opacity="0.6">
        <animate attributeName="width" values="150;130;150;145;150" dur="0.2s" repeatCount="indefinite" />
      </rect>
    </g>
    <g transform="translate(270,115)" filter="url(#flicker)">
      <rect width="250" height="95" rx="12" fill="#0d1117" stroke="#30363d" stroke-width="1" />
      <rect x="10" y="10" width="40" height="40" rx="8" fill="#9d00ff" fill-opacity="0.1" />
      <text x="30" y="36" text-anchor="middle" font-family="monospace" font-size="14" font-weight="bold" fill="#9d00ff">TF</text>
      <text x="60" y="30" font-family="sans-serif" font-size="16" font-weight="bold" fill="#ffffff">Terraform</text>
      <text x="60" y="50" font-family="sans-serif" font-size="11" fill="#8b949e">IaC, Provisioning</text>
      <rect x="60" y="65" width="170" height="4" rx="2" fill="#161b22" />
      <rect x="60" y="65" width="150" height="4" rx="2" fill="#9d00ff" opacity="0.6">
        <animate attributeName="width" values="150;130;150;145;150" dur="0.2s" repeatCount="indefinite" />
      </rect>
    </g>
    <g transform="translate(530,115)" >
      <rect width="250" height="95" rx="12" fill="#0d1117" stroke="#30363d" stroke-width="1" />
      <rect x="10" y="10" width="40" height="40" rx="8" fill="#fbbf24" fill-opacity="0.1" />
      <text x="30" y="36" text-anchor="middle" font-family="monospace" font-size="14" font-weight="bold" fill="#fbbf24">SOL</text>
      <text x="60" y="30" font-family="sans-serif" font-size="16" font-weight="bold" fill="#ffffff">Solidity</text>
      <text x="60" y="50" font-family="sans-serif" font-size="11" fill="#8b949e">Smart Contracts</text>
      <rect x="60" y="65" width="170" height="4" rx="2" fill="#161b22" />
      <rect x="60" y="65" width="150" height="4" rx="2" fill="#fbbf24" opacity="0.6">
        <animate attributeName="width" values="150;130;150;145;150" dur="0.2s" repeatCount="indefinite" />
      </rect>
    </g></svg>