<svg width="800" height="180" viewBox="0 0 800 180" xmlns="http://www.w3.org/2000/svg">
  <defs>
    <filter id="glow-cyan" x="-50%" y="-50%" width="200%" height="200%">
      <feGaussianBlur in="SourceAlpha" stdDeviation="2" result="blur"/>
      <feFlood flood-color="#00f3ff" flood-opacity="0.8"/>
      <feComposite in2="blur" operator="in"/>
      <feMerge><feMergeNode/><feMergeNode in="SourceGraphic"/></feMerge>
    </filter>
  </defs>
  <style>
    .calendar { fill: #161b22; }
    .day { fill: #0d1117; transition: fill 0.3s; }
    .day:hover { fill: #00f3ff; filter: url(#glow-cyan); }
    .day-l1 { fill: #0e4429; }
    .day-l2 { fill: #006d32; }
    .day-l3 { fill: #26a641; }
    .day-l4 { fill: #39d353; }
    .snake-path { stroke: #bc8cff; stroke-dasharray: 200; animation: snakeDraw 4s linear forwards; }
    @keyframes snakeDraw { to { stroke-dashoffset: 0; } }
  </style>
  <rect class="calendar" x="0" y="0" width="800" height="180" rx="12"/>
  <g transform="translate(20, 25)">
    <rect class="day" x="0" y="0" width="12" height="12" rx="2"/><rect class="day day-l2" x="0" y="16" width="12" height="12" rx="2"/><rect class="day" x="0" y="32" width="12" height="12" rx="2"/><rect class="day day-l1" x="0" y="48" width="12" height="12" rx="2"/><rect class="day" x="0" y="64" width="12" height="12" rx="2"/><rect class="day day-l3" x="0" y="80" width="12" height="12" rx="2"/><rect class="day" x="0" y="96" width="12" height="12" rx="2"/>
    <rect class="day day-l1" x="16" y="0" width="12" height="12" rx="2"/><rect class="day" x="16" y="16" width="12" height="12" rx="2"/><rect class="day day-l2" x="16" y="32" width="12" height="12" rx="2"/><rect class="day" x="16" y="48" width="12" height="12" rx="2"/><rect class="day day-l4" x="16" y="64" width="12" height="12" rx="2"/><rect class="day" x="16" y="80" width="12" height="12" rx="2"/><rect class="day day-l1" x="16" y="96" width="12" height="12" rx="2"/>
    <rect class="day" x="32" y="0" width="12" height="12" rx="2"/><rect class="day day-l3" x="32" y="16" width="12" height="12" rx="2"/><rect class="day" x="32" y="32" width="12" height="12" rx="2"/><rect class="day day-l2" x="32" y="48" width="12" height="12" rx="2"/><rect class="day" x="32" y="64" width="12" height="12" rx="2"/><rect class="day day-l1" x="32" y="80" width="12" height="12" rx="2"/><rect class="day" x="32" y="96" width="12" height="12" rx="2"/>
    <rect class="day day-l2" x="48" y="0" width="12" height="12" rx="2"/><rect class="day" x="48" y="16" width="12" height="12" rx="2"/><rect class="day day-l4" x="48" y="32" width="12" height="12" rx="2"/><rect class="day" x="48" y="48" width="12" height="12" rx="2"/><rect class="day day-l2" x="48" y="64" width="12" height="12" rx="2"/><rect class="day" x="48" y="80" width="12" height="12" rx="2"/><rect class="day day-l3" x="48" y="96" width="12" height="12" rx="2"/>
    <rect class="day" x="64" y="0" width="12" height="12" rx="2"/><rect class="day day-l1" x="64" y="16" width="12" height="12" rx="2"/><rect class="day" x="64" y="32" width="12" height="12" rx="2"/><rect class="day day-l2" x="64" y="48" width="12" height="12" rx="2"/><rect class="day" x="64" y="64" width="12" height="12" rx="2"/><rect class="day day-l4" x="64" y="80" width="12" height="12" rx="2"/><rect class="day" x="64" y="96" width="12" height="12" rx="2"/>
    <rect class="day day-l3" x="80" y="0" width="12" height="12" rx="2"/><rect class="day" x="80" y="16" width="12" height="12" rx="2"/><rect class="day day-l1" x="80" y="32" width="12" height="12" rx="2"/><rect class="day" x="80" y="48" width="12" height="12" rx="2"/><rect class="day day-l3" x="80" y="64" width="12" height="12" rx="2"/><rect class="day" x="80" y="80" width="12" height="12" rx="2"/><rect class="day day-l2" x="80" y="96" width="12" height="12" rx="2"/>
    <rect class="day" x="96" y="0" width="12" height="12" rx="2"/><rect class="day day-l2" x="96" y="16" width="12" height="12" rx="2"/><rect class="day" x="96" y="32" width="12" height="12" rx="2"/><rect class="day day-l1" x="96" y="48" width="12" height="12" rx="2"/><rect class="day" x="96" y="64" width="12" height="12" rx="2"/><rect class="day day-l3" x="96" y="80" width="12" height="12" rx="2"/><rect class="day" x="96" y="96" width="12" height="12" rx="2"/>
    <rect class="day day-l1" x="112" y="0" width="12" height="12" rx="2"/><rect class="day" x="112" y="16" width="12" height="12" rx="2"/><rect class="day day-l4" x="112" y="32" width="12" height="12" rx="2"/><rect class="day" x="112" y="48" width="12" height="12" rx="2"/><rect class="day day-l2" x="112" y="64" width="12" height="12" rx="2"/><rect class="day" x="112" y="80" width="12" height="12" rx="2"/><rect class="day day-l1" x="112" y="96" width="12" height="12" rx="2"/>
    <rect class="day" x="128" y="0" width="12" height="12" rx="2"/><rect class="day day-l3" x="128" y="16" width="12" height="12" rx="2"/><rect class="day" x="128" y="32" width="12" height="12" rx="2"/><rect class="day day-l2" x="128" y="48" width="12" height="12" rx="2"/><rect class="day" x="128" y="64" width="12" height="12" rx="2"/><rect class="day day-l1" x="128" y="80" width="12" height="12" rx="2"/><rect class="day" x="128" y="96" width="12" height="12" rx="2"/>
    <rect class="day day-l2" x="144" y="0" width="12" height="12" rx="2"/><rect class="day" x="144" y="16" width="12" height="12" rx="2"/><rect class="day day-l1" x="144" y="32" width="12" height="12" rx="2"/><rect class="day" x="144" y="48" width="12" height="12" rx="2"/><rect class="day day-l4" x="144" y="64" width="12" height="12" rx="2"/><rect class="day" x="144" y="80" width="12" height="12" rx="2"/><rect class="day day-l3" x="144" y="96" width="12" height="12" rx="2"/>
    <rect class="day" x="160" y="0" width="12" height="12" rx="2"/><rect class="day day-l1" x="160" y="16" width="12" height="12" rx="2"/><rect class="day" x="160" y="32" width="12" height="12" rx="2"/><rect class="day day-l2" x="160" y="48" width="12" height="12" rx="2"/><rect class="day" x="160" y="64" width="12" height="12" rx="2"/><rect class="day day-l3" x="160" y="80" width="12" height="12" rx="2"/><rect class="day" x="160" y="96" width="12" height="12" rx="2"/>
    <rect class="day day-l4" x="176" y="0" width="12" height="12" rx="2"/><rect class="day" x="176" y="16" width="12" height="12" rx="2"/><rect class="day day-l2" x="176" y="32" width="12" height="12" rx="2"/><rect class="day" x="176" y="48" width="12" height="12" rx="2"/><rect class="day day-l1" x="176" y="64" width="12" height="12" rx="2"/><rect class="day" x="176" y="80" width="12" height="12" rx="2"/><rect class="day day-l2" x="176" y="96" width="12" height="12" rx="2"/>
    <rect class="day" x="192" y="0" width="12" height="12" rx="2"/><rect class="day day-l3" x="192" y="16" width="12" height="12" rx="2"/><rect class="day" x="192" y="32" width="12" height="12" rx="2"/><rect class="day day-l1" x="192" y="48" width="12" height="12" rx="2"/><rect class="day" x="192" y="64" width="12" height="12" rx="2"/><rect class="day day-l4" x="192" y="80" width="12" height="12" rx="2"/><rect class="day" x="192" y="96" width="12" height="12" rx="2"/>
    <rect class="day day-l1" x="208" y="0" width="12" height="12" rx="2"/><rect class="day" x="208" y="16" width="12" height="12" rx="2"/><rect class="day day-l3" x="208" y="32" width="12" height="12" rx="2"/><rect class="day" x="208" y="48" width="12" height="12" rx="2"/><rect class="day day-l2" x="208" y="64" width="12" height="12" rx="2"/><rect class="day" x="208" y="80" width="12" height="12" rx="2"/><rect class="day day-l1" x="208" y="96" width="12" height="12" rx="2"/>
    <rect class="day" x="224" y="0" width="12" height="12" rx="2"/><rect class="day day-l2" x="224" y="16" width="12" height="12" rx="2"/><rect class="day" x="224" y="32" width="12" height="12" rx="2"/><rect class="day day-l4" x="224" y="48" width="12" height="12" rx="2"/><rect class="day" x="224" y="64" width="12" height="12" rx="2"/><rect class="day day-l3" x="224" y="80" width="12" height="12" rx="2"/><rect class="day" x="224" y="96" width="12" height="12" rx="2"/>
    <rect class="day day-l2" x="240" y="0" width="12" height="12" rx="2"/><rect class="day" x="240" y="16" width="12" height="12" rx="2"/><rect class="day day-l1" x="240" y="32" width="12" height="12" rx="2"/><rect class="day" x="240" y="48" width="12" height="12" rx="2"/><rect class="day day-l3" x="240" y="64" width="12" height="12" rx="2"/><rect class="day" x="240" y="80" width="12" height="12" rx="2"/><rect class="day day-l2" x="240" y="96" width="12" height="12" rx="2"/>
    <rect class="day" x="256" y="0" width="12" height="12" rx="2"/><rect class="day day-l4" x="256" y="16" width="12" height="12" rx="2"/><rect class="day" x="256" y="32" width="12" height="12" rx="2"/><rect class="day day-l2" x="256" y="48" width="12" height="12" rx="2"/><rect class="day" x="256" y="64" width="12" height="12" rx="2"/><rect class="day day-l1" x="256" y="80" width="12" height="12" rx="2"/><rect class="day" x="256" y="96" width="12" height="12" rx="2"/>
    <rect class="day day-l3" x="272" y="0" width="12" height="12" rx="2"/><rect class="day" x="272" y="16" width="12" height="12" rx="2"/><rect class="day day-l2" x="272" y="32" width="12" height="12" rx="2"/><rect class="day" x="272" y="48" width="12" height="12" rx="2"/><rect class="day day-l1" x="272" y="64" width="12" height="12" rx="2"/><rect class="day" x="272" y="80" width="12" height="12" rx="2"/><rect class="day day-l4" x="272" y="96" width="12" height="12" rx="2"/>
    <rect class="day" x="288" y="0" width="12" height="12" rx="2"/><rect class="day day-l1" x="288" y="16" width="12" height="12" rx="2"/><rect class="day" x="288" y="32" width="12" height="12" rx="2"/><rect class="day day-l3" x="288" y="48" width="12" height="12" rx="2"/><rect class="day" x="288" y="64" width="12" height="12" rx="2"/><rect class="day day-l2" x="288" y="80" width="12" height="12" rx="2"/><rect class="day" x="288" y="96" width="12" height="12" rx="2"/>
    <rect class="day day-l2" x="304" y="0" width="12" height="12" rx="2"/><rect class="day" x="304" y="16" width="12" height="12" rx="2"/><rect class="day day-l4" x="304" y="32" width="12" height="12" rx="2"/><rect class="day" x="304" y="48" width="12" height="12" rx="2"/><rect class="day day-l2" x="304" y="64" width="12" height="12" rx="2"/><rect class="day" x="304" y="80" width="12" height="12" rx="2"/><rect class="day day-l1" x="304" y="96" width="12" height="12" rx="2"/>
    <rect class="day" x="320" y="0" width="12" height="12" rx="2"/><rect class="day day-l3" x="320" y="16" width="12" height="12" rx="2"/><rect class="day" x="320" y="32" width="12" height="12" rx="2"/><rect class="day day-l1" x="320" y="48" width="12" height="12" rx="2"/><rect class="day" x="320" y="64" width="12" height="12" rx="2"/><rect class="day day-l4" x="320" y="80" width="12" height="12" rx="2"/><rect class="day" x="320" y="96" width="12" height="12" rx="2"/>
    <rect class="day day-l1" x="336" y="0" width="12" height="12" rx="2"/><rect class="day" x="336" y="16" width="12" height="12" rx="2"/><rect class="day day-l2" x="336" y="32" width="12" height="12" rx="2"/><rect class="day" x="336" y="48" width="12" height="12" rx="2"/><rect class="day day-l3" x="336" y="64" width="12" height="12" rx="2"/><rect class="day" x="336" y="80" width="12" height="12" rx="2"/><rect class="day day-l2" x="336" y="96" width="12" height="12" rx="2"/>
    <rect class="day" x="352" y="0" width="12" height="12" rx="2"/><rect class="day day-l4" x="352" y="16" width="12" height="12" rx="2"/><rect class="day" x="352" y="32" width="12" height="12" rx="2"/><rect class="day day-l2" x="352" y="48" width="12" height="12" rx="2"/><rect class="day" x="352" y="64" width="12" height="12" rx="2"/><rect class="day day-l1" x="352" y="80" width="12" height="12" rx="2"/><rect class="day" x="352" y="96" width="12" height="12" rx="2"/>
    <rect class="day day-l3" x="368" y="0" width="12" height="12" rx="2"/><rect class="day" x="368" y="16" width="12" height="12" rx="2"/><rect class="day day-l1" x="368" y="32" width="12" height="12" rx="2"/><rect class="day" x="368" y="48" width="12" height="12" rx="2"/><rect class="day day-l4" x="368" y="64" width="12" height="12" rx="2"/><rect class="day" x="368" y="80" width="12" height="12" rx="2"/><rect class="day day-l3" x="368" y="96" width="12" height="12" rx="2"/>
    <rect class="day" x="384" y="0" width="12" height="12" rx="2"/><rect class="day day-l2" x="384" y="16" width="12" height="12" rx="2"/><rect class="day" x="384" y="32" width="12" height="12" rx="2"/><rect class="day day-l3" x="384" y="48" width="12" height="12" rx="2"/><rect class="day" x="384" y="64" width="12" height="12" rx="2"/><rect class="day day-l2" x="384" y="80" width="12" height="12" rx="2"/><rect class="day" x="384" y="96" width="12" height="12" rx="2"/>
    <rect class="day day-l1" x="400" y="0" width="12" height="12" rx="2"/><rect class="day" x="400" y="16" width="12" height="12" rx="2"/><rect class="day day-l4" x="400" y="32" width="12" height="12" rx="2"/><rect class="day" x="400" y="48" width="12" height="12" rx="2"/><rect class="day day-l1" x="400" y="64" width="12" height="12" rx="2"/><rect class="day" x="400" y="80" width="12" height="12" rx="2"/><rect class="day day-l4" x="400" y="96" width="12" height="12" rx="2"/>
    <rect class="day" x="416" y="0" width="12" height="12" rx="2"/><rect class="day day-l3" x="416" y="16" width="12" height="12" rx="2"/><rect class="day" x="416" y="32" width="12" height="12" rx="2"/><rect class="day day-l2" x="416" y="48" width="12" height="12" rx="2"/><rect class="day" x="416" y="64" width="12" height="12" rx="2"/><rect class="day day-l3" x="416" y="80" width="12" height="12" rx="2"/><rect class="day" x="416" y="96" width="12" height="12" rx="2"/>
    <rect class="day day-l2" x="432" y="0" width="12" height="12" rx="2"/><rect class="day" x="432" y="16" width="12" height="12" rx="2"/><rect class="day day-l1" x="432" y="32" width="12" height="12" rx="2"/><rect class="day" x="432" y="48" width="12" height="12" rx="2"/><rect class="day day-l4" x="432" y="64" width="12" height="12" rx="2"/><rect class="day" x="432" y="80" width="12" height="12" rx="2"/><rect class="day day-l2" x="432" y="96" width="12" height="12" rx="2"/>
    <rect class="day" x="448" y="0" width="12" height="12" rx="2"/><rect class="day day-l4" x="448" y="16" width="12" height="12" rx="2"/><rect class="day" x="448" y="32" width="12" height="12" rx="2"/><rect class="day day-l3" x="448" y="48" width="12" height="12" rx="2"/><rect class="day" x="448" y="64" width="12" height="12" rx="2"/><rect class="day day-l1" x="448" y="80" width="12" height="12" rx="2"/><rect class="day" x="448" y="96" width="12" height="12" rx="2"/>
    <rect class="day day-l3" x="464" y="0" width="12" height="12" rx="2"/><rect class="day" x="464" y="16" width="12" height="12" rx="2"/><rect class="day day-l2" x="464" y="32" width="12" height="12" rx="2"/><rect class="day" x="464" y="48" width="12" height="12" rx="2"/><rect class="day day-l2" x="464" y="64" width="12" height="12" rx="2"/><rect class="day" x="464" y="80" width="12" height="12" rx="2"/><rect class="day day-l4" x="464" y="96" width="12" height="12" rx="2"/>
    <rect class="day" x="480" y="0" width="12" height="12" rx="2"/><rect class="day day-l1" x="480" y="16" width="12" height="12" rx="2"/><rect class="day" x="480" y="32" width="12" height="12" rx="2"/><rect class="day day-l4" x="480" y="48" width="12" height="12" rx="2"/><rect class="day" x="480" y="64" width="12" height="12" rx="2"/><rect class="day day-l3" x="480" y="80" width="12" height="12" rx="2"/><rect class="day" x="480" y="96" width="12" height="12" rx="2"/>
    <rect class="day day-l4" x="496" y="0" width="12" height="12" rx="2"/><rect class="day" x="496" y="16" width="12" height="12" rx="2"/><rect class="day day-l3" x="496" y="32" width="12" height="12" rx="2"/><rect class="day" x="496" y="48" width="12" height="12" rx="2"/><rect class="day day-l1" x="496" y="64" width="12" height="12" rx="2"/><rect class="day" x="496" y="80" width="12" height="12" rx="2"/><rect class="day day-l2" x="496" y="96" width="12" height="12" rx="2"/>
    <rect class="day" x="512" y="0" width="12" height="12" rx="2"/><rect class="day day-l2" x="512" y="16" width="12" height="12" rx="2"/><rect class="day" x="512" y="32" width="12" height="12" rx="2"/><rect class="day day-l2" x="512" y="48" width="12" height="12" rx="2"/><rect class="day" x="512" y="64" width="12" height="12" rx="2"/><rect class="day day-l4" x="512" y="80" width="12" height="12" rx="2"/><rect class="day" x="512" y="96" width="12" height="12" rx="2"/>
    <rect class="day day-l1" x="528" y="0" width="12" height="12" rx="2"/><rect class="day" x="528" y="16" width="12" height="12" rx="2"/><rect class="day day-l4" x="528" y="32" width="12" height="12" rx="2"/><rect class="day" x="528" y="48" width="12" height="12" rx="2"/><rect class="day day-l3" x="528" y="64" width="12" height="12" rx="2"/><rect class="day" x="528" y="80" width="12" height="12" rx="2"/><rect class="day day-l1" x="528" y="96" width="12" height="12" rx="2"/>
    <rect class="day" x="544" y="0" width="12" height="12" rx="2"/><rect class="day day-l3" x="544" y="16" width="12" height="12" rx="2"/><rect class="day" x="544" y="32" width="12" height="12" rx="2"/><rect class="day day-l1" x="544" y="48" width="12" height="12" rx="2"/><rect class="day" x="544" y="64" width="12" height="12" rx="2"/><rect class="day day-l2" x="544" y="80" width="12" height="12" rx="2"/><rect class="day" x="544" y="96" width="12" height="12" rx="2"/>
    <rect class="day day-l2" x="560" y="0" width="12" height="12" rx="2"/><rect class="day" x="560" y="16" width="12" height="12" rx="2"/><rect class="day day-l2" x="560" y="32" width="12" height="12" rx="2"/><rect class="day" x="560" y="48" width="12" height="12" rx="2"/><rect class="day day-l4" x="560" y="64" width="12" height="12" rx="2"/><rect class="day" x="560" y="80" width="12" height="12" rx="2"/><rect class="day day-l3" x="560" y="96" width="12" height="12" rx="2"/>
    <rect class="day" x="576" y="0" width="12" height="12" rx="2"/><rect class="day day-l4" x="576" y="16" width="12" height="12" rx="2"/><rect class="day" x="576" y="32" width="12" height="12" rx="2"/><rect class="day day-l3" x="576" y="48" width="12" height="12" rx="2"/><rect class="day" x="576" y="64" width="12" height="12" rx="2"/><rect class="day day-l1" x="576" y="80" width="12" height="12" rx="2"/><rect class="day" x="576" y="96" width="12" height="12" rx="2"/>
    <rect class="day day-l3" x="592" y="0" width="12" height="12" rx="2"/><rect class="day" x="592" y="16" width="12" height="12" rx="2"/><rect class="day day-l1" x="592" y="32" width="12" height="12" rx="2"/><rect class="day" x="592" y="48" width="12" height="12" rx="2"/><rect class="day day-l2" x="592" y="64" width="12" height="12" rx="2"/><rect class="day" x="592" y="80" width="12" height="12" rx="2"/><rect class="day day-l4" x="592" y="96" width="12" height="12" rx="2"/>
    <rect class="day" x="608" y="0" width="12" height="12" rx="2"/><rect class="day day-l1" x="608" y="16" width="12" height="12" rx="2"/><rect class="day" x="608" y="32" width="12" height="12" rx="2"/><rect class="day day-l4" x="608" y="48" width="12" height="12" rx="2"/><rect class="day" x="608" y="64" width="12" height="12" rx="2"/><rect class="day day-l3" x="608" y="80" width="12" height="12" rx="2"/><rect class="day" x="608" y="96" width="12" height="12" rx="2"/>
    <rect class="day day-l4" x="624" y="0" width="12" height="12" rx="2"/><rect class="day" x="624" y="16" width="12" height="12" rx="2"/><rect class="day day-l3" x="624" y="32" width="12" height="12" rx="2"/><rect class="day" x="624" y="48" width="12" height="12" rx="2"/><rect class="day day-l1" x="624" y="64" width="12" height="12" rx="2"/><rect class="day" x="624" y="80" width="12" height="12" rx="2"/><rect class="day day-l2" x="624" y="96" width="12" height="12" rx="2"/>
    <rect class="day" x="640" y="0" width="12" height="12" rx="2"/><rect class="day day-l2" x="640" y="16" width="12" height="12" rx="2"/><rect class="day" x="640" y="32" width="12" height="12" rx="2"/><rect class="day day-l2" x="640" y="48" width="12" height="12" rx="2"/><rect class="day" x="640" y="64" width="12" height="12" rx="2"/><rect class="day day-l4" x="640" y="80" width="12" height="12" rx="2"/><rect class="day" x="640" y="96" width="12" height="12" rx="2"/>
    <rect class="day day-l1" x="656" y="0" width="12" height="12" rx="2"/><rect class="day" x="656" y="16" width="12" height="12" rx="2"/><rect class="day day-l4" x="656" y="32" width="12" height="12" rx="2"/><rect class="day" x="656" y="48" width="12" height="12" rx="2"/><rect class="day day-l3" x="656" y="64" width="12" height="12" rx="2"/><rect class="day" x="656" y="80" width="12" height="12" rx="2"/><rect class="day day-l1" x="656" y="96" width="12" height="12" rx="2"/>
    <rect class="day" x="672" y="0" width="12" height="12" rx="2"/><rect class="day day-l3" x="672" y="16" width="12" height="12" rx="2"/><rect class="day" x="672" y="32" width="12" height="12" rx="2"/><rect class="day day-l1" x="672" y="48" width="12" height="12" rx="2"/><rect class="day" x="672" y="64" width="12" height="12" rx="2"/><rect class="day day-l2" x="672" y="80" width="12" height="12" rx="2"/><rect class="day" x="672" y="96" width="12" height="12" rx="2"/>
    <rect class="day day-l2" x="688" y="0" width="12" height="12" rx="2"/><rect class="day" x="688" y="16" width="12" height="12" rx="2"/><rect class="day day-l2" x="688" y="32" width="12" height="12" rx="2"/><rect class="day" x="688" y="48" width="12" height="12" rx="2"/><rect class="day day-l4" x="688" y="64" width="12" height="12" rx="2"/><rect class="day" x="688" y="80" width="12" height="12" rx="2"/><rect class="day day-l3" x="688" y="96" width="12" height="12" rx="2"/>
    <rect class="day" x="704" y="0" width="12" height="12" rx="2"/><rect class="day day-l4" x="704" y="16" width="12" height="12" rx="2"/><rect class="day" x="704" y="32" width="12" height="12" rx="2"/><rect class="day day-l3" x="704" y="48" width="12" height="12" rx="2"/><rect class="day" x="704" y="64" width="12" height="12" rx="2"/><rect class="day day-l1" x="704" y="80" width="12" height="12" rx="2"/><rect class="day" x="704" y="96" width="12" height="12" rx="2"/>
    <rect class="day day-l3" x="720" y="0" width="12" height="12" rx="2"/><rect class="day" x="720" y="16" width="12" height="12" rx="2"/><rect class="day day-l1" x="720" y="32" width="12" height="12" rx="2"/><rect class="day" x="720" y="48" width="12" height="12" rx="2"/><rect class="day day-l2" x="720" y="64" width="12" height="12" rx="2"/><rect class="day" x="720" y="80" width="12" height="12" rx="2"/><rect class="day day-l4" x="720" y="96" width="12" height="12" rx="2"/>
    <rect class="day" x="736" y="0" width="12" height="12" rx="2"/><rect class="day day-l1" x="736" y="16" width="12" height="12" rx="2"/><rect class="day" x="736" y="32" width="12" height="12" rx="2"/><rect class="day day-l4" x="736" y="48" width="12" height="12" rx="2"/><rect class="day" x="736" y="64" width="12" height="12" rx="2"/><rect class="day day-l3" x="736" y="80" width="12" height="12" rx="2"/><rect class="day" x="736" y="96" width="12" height="12" rx="2"/>
    <rect class="day day-l4" x="752" y="0" width="12" height="12" rx="2"/><rect class="day" x="752" y="16" width="12" height="12" rx="2"/><rect class="day day-l3" x="752" y="32" width="12" height="12" rx="2"/><rect class="day" x="752" y="48" width="12" height="12" rx="2"/><rect class="day day-l1" x="752" y="64" width="12" height="12" rx="2"/><rect class="day" x="752" y="80" width="12" height="12" rx="2"/><rect class="day day-l2" x="752" y="96" width="12" height="12" rx="2"/>
  </g>
  <path class="snake-path" d="M30 55 Q 80 25 130 55 T 230 55 T 330 55 T 430 55 T 530 55 T 630 55 T 730 55" stroke-width="3" fill="none" stroke-dashoffset="200"/>
  <text x="400" y="160" text-anchor="middle" fill="#00f3ff" font-family="monospace" font-size="11" opacity="0.7">CONTRIBUTION MATRIX // 2024-2025</text>
</svg>