<svg width="1000" height="220" viewBox="0 0 1000 220" xmlns="http://www.w3.org/2000/svg">
  <defs>
    <radialGradient id="orb-core" cx="50%" cy="50%" r="50%">
      <stop offset="0%" stop-color="#00f3ff" stop-opacity="0.9"/>
      <stop offset="40%" stop-color="#bc8cff" stop-opacity="0.5"/>
      <stop offset="100%" stop-color="#00ff9d" stop-opacity="0"/>
    </radialGradient>
    <radialGradient id="orb-glow" cx="50%" cy="50%" r="50%">
      <stop offset="0%" stop-color="#00f3ff" stop-opacity="0.3"/>
      <stop offset="100%" stop-color="#00f3ff" stop-opacity="0"/>
    </radialGradient>
    <linearGradient id="title-grad" x1="0%" y1="0%" x2="100%" y2="100%">
      <stop offset="0%" stop-color="#00f3ff"/>
      <stop offset="50%" stop-color="#bc8cff"/>
      <stop offset="100%" stop-color="#00ff9d"/>
    </linearGradient>
    <linearGradient id="flow-grad" x1="0%" y1="0%" x2="100%" y2="0%">
      <stop offset="0%" stop-color="#00f3ff" stop-opacity="0"/>
      <stop offset="25%" stop-color="#00f3ff" stop-opacity="1"/>
      <stop offset="75%" stop-color="#bc8cff" stop-opacity="1"/>
      <stop offset="100%" stop-color="#00ff9d" stop-opacity="0"/>
    </linearGradient>
    <filter id="glow-heavy" x="-100%" y="-100%" width="300%" height="300%">
      <feGaussianBlur stdDeviation="4" result="blur"/>
      <feMerge><feMergeNode in="blur"/><feMergeNode in="blur"/><feMergeNode in="SourceGraphic"/></feMerge>
    </filter>
    <filter id="glow-soft" x="-50%" y="-50%" width="200%" height="200%">
      <feGaussianBlur stdDeviation="2" result="blur"/>
      <feMerge><feMergeNode in="blur"/><feMergeNode in="SourceGraphic"/></feMerge>
    </filter>
    <filter id="orb-filter" x="-200%" y="-200%" width="500%" height="500%">
      <feGaussianBlur stdDeviation="8" result="blur"/>
      <feMerge><feMergeNode in="blur"/><feMergeNode in="blur"/><feMergeNode in="SourceGraphic"/></feMerge>
    </filter>
  </defs>
  
  <style>
    .bg { fill: #0d1117; }
    .grid { stroke: #30363d; stroke-width: 0.3; opacity: 0.2; }
    .matrix { font-family: 'SF Mono', 'JetBrains Mono', monospace; font-size: 8px; fill: #00f3ff; opacity: 0.06; }
    .title-fancy { font-family: 'Playfair Display', 'Bodoni MT', 'Didot', Georgia, serif; font-weight: 900; font-style: italic; font-size: 48px; letter-spacing: 4px; fill: url(#title-grad); filter: url(#glow-heavy); }
    .subtitle { font-family: 'SF Mono', 'JetBrains Mono', monospace; font-size: 10px; letter-spacing: 3px; fill: #bc8cff; }
    .pillar { font-family: 'SF Mono', 'JetBrains Mono', monospace; font-size: 9px; letter-spacing: 2px; fill: #8b949e; font-weight: 600; }
    .pillar-value { font-family: 'SF Mono', 'JetBrains Mono', monospace; font-size: 8px; fill: #c9d1d9; }
    .status-label { font-family: 'SF Mono', 'JetBrains Mono', monospace; font-size: 8px; fill: #8b949e; }
    .status-value { font-family: 'SF Mono', 'JetBrains Mono', monospace; font-size: 9px; font-weight: 600; }
    .glyph { font-family: monospace; font-size: 14px; fill: #bc8cff; opacity: 0.4; }
    .boot-text { font-family: 'SF Mono', 'JetBrains Mono', monospace; font-size: 7px; fill: #00ff9d; opacity: 0.5; }
    .orbit-ring { fill: none; stroke-width: 1; opacity: 0.3; }
    .orbit-1 { stroke: #00f3ff; animation: spin-orbit 25s linear infinite; transform-origin: 500px 95px; }
    .orbit-2 { stroke: #bc8cff; animation: spin-orbit 20s linear infinite reverse; transform-origin: 500px 95px; }
    .orbit-3 { stroke: #00ff9d; animation: spin-orbit 30s linear infinite; transform-origin: 500px 95px; }
    .orbit-4 { stroke: #d29922; animation: spin-orbit 35s linear infinite reverse; transform-origin: 500px 95px; }
    @keyframes spin-orbit { from { transform: rotate(0deg); } to { transform: rotate(360deg); } }
    .pulse { animation: pulse 2s ease-in-out infinite; }
    @keyframes pulse { 0%,100% { opacity: 0.6; } 50% { opacity: 1; } }
    .status-pulse { animation: status-pulse 2s ease-in-out infinite; }
    @keyframes status-pulse { 0%,100% { opacity: 0.7; } 50% { opacity: 1; } }
    .reveal { opacity: 0; animation: reveal 1.5s ease-out forwards; }
    .reveal-1 { animation-delay: 0.2s; }
    .reveal-2 { animation-delay: 0.5s; }
    .reveal-3 { animation-delay: 0.8s; }
    .reveal-4 { animation-delay: 1.1s; }
    .reveal-5 { animation-delay: 1.4s; }
    @keyframes reveal { to { opacity: 1; } }
    .float { animation: float 4s ease-in-out infinite; }
    @keyframes float { 0%,100% { transform: translateY(0); } 50% { transform: translateY(-6px); } }
    .data-flow { animation: data-flow 3s linear infinite; }
    @keyframes data-flow { 0% { opacity: 0.3; } 50% { opacity: 0.8; } 100% { opacity: 0.3; } }
    @media (prefers-color-scheme: light) {
      .bg { fill: #f6f8fa; }
      .grid { stroke: #d0d7de; }
      .matrix { fill: #0969da; }
      .title-fancy { fill: #0969da; filter: none; }
      .subtitle { fill: #8250df; }
      .pillar { fill: #57606a; }
      .pillar-value { fill: #24292f; }
      .glyph { fill: #8250df; }
    }
    @media (prefers-reduced-motion: reduce) {
      .orbit-ring, .pulse, .status-pulse, .reveal, .float, .data-flow { animation: none; opacity: 1; }
    }
  </style>
  
  <rect class="bg" width="1000" height="220"/>
  
  <g class="grid">
    <line x1="0" y1="20" x2="1000" y2="20"/><line x1="0" y1="40" x2="1000" y2="40"/>
    <line x1="0" y1="60" x2="1000" y2="60"/><line x1="0" y1="80" x2="1000" y2="80"/>
    <line x1="0" y1="100" x2="1000" y2="100"/><line x1="0" y1="120" x2="1000" y2="120"/>
    <line x1="0" y1="140" x2="1000" y2="140"/><line x1="0" y1="160" x2="1000" y2="160"/>
    <line x1="0" y1="180" x2="1000" y2="180"/><line x1="0" y1="200" x2="1000" y2="200"/>
    <line x1="50" y1="0" x2="50" y2="220"/><line x1="100" y1="0" x2="100" y2="220"/>
    <line x1="150" y1="0" x2="150" y2="220"/><line x1="200" y1="0" x2="200" y2="220"/>
    <line x1="250" y1="0" x2="250" y2="220"/><line x1="300" y1="0" x2="300" y2="220"/>
    <line x1="350" y1="0" x2="350" y2="220"/><line x1="400" y1="0" x2="400" y2="220"/>
    <line x1="450" y1="0" x2="450" y2="220"/><line x1="500" y1="0" x2="500" y2="220"/>
    <line x1="550" y1="0" x2="550" y2="220"/><line x1="600" y1="0" x2="600" y2="220"/>
    <line x1="650" y1="0" x2="650" y2="220"/><line x1="700" y1="0" x2="700" y2="220"/>
    <line x1="750" y1="0" x2="750" y2="220"/><line x1="800" y1="0" x2="800" y2="220"/>
    <line x1="850" y1="0" x2="850" y2="220"/><line x1="900" y1="0" x2="900" y2="220"/>
    <line x1="950" y1="0" x2="950" y2="220"/>
  </g>
  
  <g class="matrix">
    <text x="15" y="18">01001101</text><text x="95" y="38">10110100</text><text x="195" y="28">01101001</text>
    <text x="295" y="48">11010010</text><text x="395" y="18">00101101</text><text x="495" y="38">10010110</text>
    <text x="595" y="28">01110011</text><text x="695" y="48">11001010</text><text x="795" y="18">01010010</text>
    <text x="895" y="38">10110101</text><text x="65" y="58">01101001</text><text x="165" y="78">11010010</text>
    <text x="265" y="98">00101101</text><text x="365" y="118">10010110</text><text x="465" y="58">01110011</text>
    <text x="565" y="78">11001010</text><text x="665" y="98">01010010</text><text x="765" y="118">10110101</text>
    <text x="865" y="58">01101001</text><text x="45" y="138">11010010</text><text x="145" y="158">00101101</text>
    <text x="245" y="178">10010110</text><text x="345" y="138">01110011</text><text x="445" y="158">11001010</text>
    <text x="545" y="178">01010010</text><text x="645" y="138">10110101</text><text x="745" y="158">01101001</text>
    <text x="845" y="178">11010010</text><text x="945" y="138">00101101</text>
  </g>
  
  <g transform="translate(500, 95)">
    <ellipse class="orbit-ring orbit-1" cx="0" cy="0" rx="320" ry="65"/>
    <ellipse class="orbit-ring orbit-2" cx="0" cy="0" rx="260" ry="50"/>
    <ellipse class="orbit-ring orbit-3" cx="0" cy="0" rx="200" ry="38"/>
    <ellipse class="orbit-ring orbit-4" cx="0" cy="0" rx="140" ry="25"/>
  </g>
  
  <circle cx="500" cy="95" r="60" fill="url(#orb-glow)" filter="url(#orb-filter)" class="pulse"/>
  <circle cx="500" cy="95" r="35" fill="url(#orb-core)" filter="url(#glow-soft)"/>
  <circle cx="500" cy="95" r="12" fill="#00f3ff" opacity="0.9" class="pulse"/>
  
  <g class="reveal reveal-1">
    <g transform="translate(135, 85)" class="float">
      <rect x="-45" y="-18" width="90" height="36" rx="4" fill="#0d1117" stroke="#00f3ff" stroke-width="1" opacity="0.8"/>
      <text class="pillar" x="0" y="-4" text-anchor="middle" fill="#00f3ff">DETERMINISM</text>
      <text class="pillar-value" x="0" y="10" text-anchor="middle">traceable · reproducible</text>
    </g>
  </g>
  
  <g class="reveal reveal-2">
    <g transform="translate(865, 85)" class="float" style="animation-delay: 0.5s">
      <rect x="-50" y="-18" width="100" height="36" rx="4" fill="#0d1117" stroke="#bc8cff" stroke-width="1" opacity="0.8"/>
      <text class="pillar" x="0" y="-4" text-anchor="middle" fill="#bc8cff">OBSERVABILITY</text>
      <text class="pillar-value" x="0" y="10" text-anchor="middle">systems that speak</text>
    </g>
  </g>
  
  <g class="reveal reveal-3">
    <g transform="translate(135, 145)" class="float" style="animation-delay: 1s">
      <rect x="-50" y="-18" width="100" height="36" rx="4" fill="#0d1117" stroke="#00ff9d" stroke-width="1" opacity="0.8"/>
      <text class="pillar" x="0" y="-4" text-anchor="middle" fill="#00ff9d">iOS AUTOMATION</text>
      <text class="pillar-value" x="0" y="10" text-anchor="middle">Shortcuts · Scriptable</text>
    </g>
  </g>
  
  <g class="reveal reveal-4">
    <g transform="translate(865, 145)" class="float" style="animation-delay: 1.5s">
      <rect x="-45" y="-18" width="90" height="36" rx="4" fill="#0d1117" stroke="#d29922" stroke-width="1" opacity="0.8"/>
      <text class="pillar" x="0" y="-4" text-anchor="middle" fill="#d29922">PROXY MESH</text>
      <text class="pillar-value" x="0" y="10" text-anchor="middle">shadow routing</text>
    </g>
  </g>
  
  <text class="glyph float" x="420" y="65">𖢧ꛅ𖤢</text>
  <text class="glyph float" x="565" y="130" style="animation-delay: 1s">ꚽꚳꛈ𖢧ꛕꛅ</text>
  
  <g class="reveal reveal-3" filter="url(#glow-heavy)">
    <text class="title-fancy" x="500" y="100" text-anchor="middle">𝒫𝑜𝓅𝒟𝑒𝓊𝓍𝑅𝑒𝓂</text>
  </g>
  
  <g class="reveal reveal-4">
    <text class="subtitle" x="500" y="125" text-anchor="middle">PRINCIPAL SYSTEMS ARCHITECT</text>
  </g>
  
  <g class="reveal reveal-5">
    <g transform="translate(180, 195)">
      <circle cx="0" cy="0" r="4" fill="#00f3ff" class="status-pulse"/>
      <text class="status-label" x="10" y="-3">STATUS</text>
      <text class="status-value" x="10" y="8" fill="#00f3ff">ONLINE</text>
    </g>
    <g transform="translate(350, 195)">
      <circle cx="0" cy="0" r="4" fill="#bc8cff" class="status-pulse" style="animation-delay: 0.3s"/>
      <text class="status-label" x="10" y="-3">SYNC</text>
      <text class="status-value" x="10" y="8" fill="#bc8cff">ACTIVE</text>
    </g>
    <g transform="translate(520, 195)">
      <circle cx="0" cy="0" r="4" fill="#00ff9d" class="status-pulse" style="animation-delay: 0.6s"/>
      <text class="status-label" x="10" y="-3">MODE</text>
      <text class="status-value" x="10" y="8" fill="#00ff9d">QUANTUM</text>
    </g>
    <g transform="translate(690, 195)">
      <circle cx="0" cy="0" r="4" fill="#d29922" class="status-pulse" style="animation-delay: 0.9s"/>
      <text class="status-label" x="10" y="-3">UPTIME</text>
      <text class="status-value" x="10" y="8" fill="#d29922">∞</text>
    </g>
    <g transform="translate(850, 195)">
      <circle cx="0" cy="0" r="4" fill="#8b949e" class="status-pulse" style="animation-delay: 1.2s"/>
      <text class="status-label" x="10" y="-3">CHANNEL</text>
      <text class="status-value" x="10" y="8" fill="#8b949e">OPEN</text>
    </g>
  </g>
  
  <line x1="0" y1="218" x2="1000" y2="218" stroke="#30363d" stroke-width="2"/>
  <rect x="0" y="217" width="300" height="3" fill="url(#flow-grad)" class="data-flow">
    <animate attributeName="x" values="0;700;0" dur="4s" repeatCount="indefinite"/>
  </rect>
  
  <g class="boot-text" opacity="0">
    <text x="30" y="10">◈ BOOT: iOS Shortcuts + Scriptable operators loaded</text>
    <text x="600" y="10">◈ PROXY: Shadow mesh routing active</text>
    <animate attributeName="opacity" values="0;0.5;0" dur="3s" repeatCount="indefinite"/>
  </g>
</svg>