<svg width="800" height="350" viewBox="0 0 800 350" xmlns="http://www.w3.org/2000/svg">
  <style>
    .bg { fill: var(--bg-color, #0d1117); }
    .text-primary { fill: var(--text-color, #e6edf3); }
    .text-muted { fill: var(--muted-color, #7d8590); }
    .bar-bg { fill: var(--bar-bg, #21262d); }
    .terminal-header { fill: var(--header-bg, #161b22); }
    @media (prefers-color-scheme: light) {
      .bg { fill: #f6f8fa; }
      .text-primary { fill: #1f2328; }
      .text-muted { fill: #656d76; }
      .bar-bg { fill: #d1d9e0; }
      .terminal-header { fill: #e6e9ec; }
    }
  </style>
  
  <rect class="bg" width="800" height="350" rx="8"/>
  
  <rect class="terminal-header" x="20" y="20" width="760" height="36" rx="6"/>
  <circle cx="40" cy="38" r="6" fill="#ff5f56"/>
  <circle cx="60" cy="38" r="6" fill="#ffbd2e"/>
  <circle cx="80" cy="38" r="6" fill="#27ca40"/>
  <text x="400" y="44" text-anchor="middle" font-family="'JetBrains Mono', 'Fira Code', monospace" font-size="14" class="text-muted">~/skills --analyze</text>
  
  <g transform="translate(40, 80)">
    <g transform="translate(0, 0)">
      <svg width="24" height="24" viewBox="0 0 24 24">
        <rect width="24" height="24" rx="3" fill="#3178c6"/>
        <text x="12" y="17" text-anchor="middle" font-family="monospace" font-size="12" font-weight="bold" fill="#fff">TS</text>
      </svg>
      <text x="36" y="17" font-family="'JetBrains Mono', 'Fira Code', monospace" font-size="15" class="text-primary">TypeScript</text>
      <text x="140" y="17" font-family="'JetBrains Mono', 'Fira Code', monospace" font-size="13" class="text-muted">[</text>
      <rect class="bar-bg" x="150" y="5" width="500" height="14" rx="2"/>
      <rect x="150" y="5" width="0" height="14" rx="2" fill="url(#grad95)">
        <animate attributeName="width" from="0" to="475" dur="1.2s" fill="freeze" calcMode="spline" keySplines="0.4 0 0.2 1"/>
      </rect>
      <text x="658" y="17" font-family="'JetBrains Mono', 'Fira Code', monospace" font-size="13" class="text-muted">]</text>
      <text x="720" y="17" font-family="'JetBrains Mono', 'Fira Code', monospace" font-size="14" fill="#00f3ff">95%</text>
    </g>
    
    <g transform="translate(0, 38)">
      <svg width="24" height="24" viewBox="0 0 24 24">
        <rect width="24" height="24" rx="3" fill="#7b42bc"/>
        <path d="M7 7h10v2H7zM7 11h10v2H7zM7 15h7v2H7z" fill="#fff"/>
      </svg>
      <text x="36" y="17" font-family="'JetBrains Mono', 'Fira Code', monospace" font-size="15" class="text-primary">Terraform</text>
      <text x="140" y="17" font-family="'JetBrains Mono', 'Fira Code', monospace" font-size="13" class="text-muted">[</text>
      <rect class="bar-bg" x="150" y="5" width="500" height="14" rx="2"/>
      <rect x="150" y="5" width="0" height="14" rx="2" fill="url(#grad90)">
        <animate attributeName="width" from="0" to="450" dur="1.3s" fill="freeze" calcMode="spline" keySplines="0.4 0 0.2 1"/>
      </rect>
      <text x="658" y="17" font-family="'JetBrains Mono', 'Fira Code', monospace" font-size="13" class="text-muted">]</text>
      <text x="720" y="17" font-family="'JetBrains Mono', 'Fira Code', monospace" font-size="14" fill="#00e5ff">90%</text>
    </g>
    
    <g transform="translate(0, 76)">
      <svg width="24" height="24" viewBox="0 0 24 24">
        <rect width="24" height="24" rx="3" fill="#3776ab"/>
        <circle cx="12" cy="12" r="5" fill="#ffd43b"/>
        <circle cx="12" cy="12" r="2.5" fill="#3776ab"/>
      </svg>
      <text x="36" y="17" font-family="'JetBrains Mono', 'Fira Code', monospace" font-size="15" class="text-primary">Python</text>
      <text x="140" y="17" font-family="'JetBrains Mono', 'Fira Code', monospace" font-size="13" class="text-muted">[</text>
      <rect class="bar-bg" x="150" y="5" width="500" height="14" rx="2"/>
      <rect x="150" y="5" width="0" height="14" rx="2" fill="url(#grad85)">
        <animate attributeName="width" from="0" to="425" dur="1.4s" fill="freeze" calcMode="spline" keySplines="0.4 0 0.2 1"/>
      </rect>
      <text x="658" y="17" font-family="'JetBrains Mono', 'Fira Code', monospace" font-size="13" class="text-muted">]</text>
      <text x="720" y="17" font-family="'JetBrains Mono', 'Fira Code', monospace" font-size="14" fill="#00d7ff">85%</text>
    </g>
    
    <g transform="translate(0, 114)">
      <svg width="24" height="24" viewBox="0 0 24 24">
        <rect width="24" height="24" rx="3" fill="#00add8"/>
        <text x="12" y="17" text-anchor="middle" font-family="monospace" font-size="14" font-weight="bold" fill="#fff">Go</text>
      </svg>
      <text x="36" y="17" font-family="'JetBrains Mono', 'Fira Code', monospace" font-size="15" class="text-primary">Go</text>
      <text x="140" y="17" font-family="'JetBrains Mono', 'Fira Code', monospace" font-size="13" class="text-muted">[</text>
      <rect class="bar-bg" x="150" y="5" width="500" height="14" rx="2"/>
      <rect x="150" y="5" width="0" height="14" rx="2" fill="url(#grad80)">
        <animate attributeName="width" from="0" to="400" dur="1.5s" fill="freeze" calcMode="spline" keySplines="0.4 0 0.2 1"/>
      </rect>
      <text x="658" y="17" font-family="'JetBrains Mono', 'Fira Code', monospace" font-size="13" class="text-muted">]</text>
      <text x="720" y="17" font-family="'JetBrains Mono', 'Fira Code', monospace" font-size="14" fill="#00c8ff">80%</text>
    </g>
    
    <g transform="translate(0, 152)">
      <svg width="24" height="24" viewBox="0 0 24 24">
        <rect width="24" height="24" rx="3" fill="#dea584"/>
        <circle cx="12" cy="12" r="6" fill="none" stroke="#705e4d" stroke-width="2"/>
        <circle cx="12" cy="12" r="3" fill="#705e4d"/>
      </svg>
      <text x="36" y="17" font-family="'JetBrains Mono', 'Fira Code', monospace" font-size="15" class="text-primary">Rust</text>
      <text x="140" y="17" font-family="'JetBrains Mono', 'Fira Code', monospace" font-size="13" class="text-muted">[</text>
      <rect class="bar-bg" x="150" y="5" width="500" height="14" rx="2"/>
      <rect x="150" y="5" width="0" height="14" rx="2" fill="url(#grad70)">
        <animate attributeName="width" from="0" to="350" dur="1.6s" fill="freeze" calcMode="spline" keySplines="0.4 0 0.2 1"/>
      </rect>
      <text x="658" y="17" font-family="'JetBrains Mono', 'Fira Code', monospace" font-size="13" class="text-muted">]</text>
      <text x="720" y="17" font-family="'JetBrains Mono', 'Fira Code', monospace" font-size="14" fill="#5ce1ff">70%</text>
    </g>
    
    <g transform="translate(0, 190)">
      <svg width="24" height="24" viewBox="0 0 24 24">
        <rect width="24" height="24" rx="3" fill="#363636"/>
        <polygon points="12,4 20,8 20,12 12,16 4,12 4,8" fill="#6c6c6c" stroke="#fff" stroke-width="0.5"/>
        <polygon points="12,8 16,10 16,14 12,16 8,14 8,10" fill="#999"/>
      </svg>
      <text x="36" y="17" font-family="'JetBrains Mono', 'Fira Code', monospace" font-size="15" class="text-primary">Solidity</text>
      <text x="140" y="17" font-family="'JetBrains Mono', 'Fira Code', monospace" font-size="13" class="text-muted">[</text>
      <rect class="bar-bg" x="150" y="5" width="500" height="14" rx="2"/>
      <rect x="150" y="5" width="0" height="14" rx="2" fill="url(#grad60)">
        <animate attributeName="width" from="0" to="300" dur="1.7s" fill="freeze" calcMode="spline" keySplines="0.4 0 0.2 1"/>
      </rect>
      <text x="658" y="17" font-family="'JetBrains Mono', 'Fira Code', monospace" font-size="13" class="text-muted">]</text>
      <text x="720" y="17" font-family="'JetBrains Mono', 'Fira Code', monospace" font-size="14" fill="#bc8cff">60%</text>
    </g>
  </g>
  
  <defs>
    <linearGradient id="grad95" x1="0%" y1="0%" x2="100%" y2="0%">
      <stop offset="0%" stop-color="#00f3ff"/>
      <stop offset="100%" stop-color="#00f3ff"/>
    </linearGradient>
    <linearGradient id="grad90" x1="0%" y1="0%" x2="100%" y2="0%">
      <stop offset="0%" stop-color="#00f3ff"/>
      <stop offset="33%" stop-color="#3de0ff"/>
      <stop offset="100%" stop-color="#7accff"/>
    </linearGradient>
    <linearGradient id="grad85" x1="0%" y1="0%" x2="100%" y2="0%">
      <stop offset="0%" stop-color="#00f3ff"/>
      <stop offset="50%" stop-color="#5cd0ff"/>
      <stop offset="100%" stop-color="#9fb8ff"/>
    </linearGradient>
    <linearGradient id="grad80" x1="0%" y1="0%" x2="100%" y2="0%">
      <stop offset="0%" stop-color="#00f3ff"/>
      <stop offset="66%" stop-color="#8cc0ff"/>
      <stop offset="100%" stop-color="#b8a8ff"/>
    </linearGradient>
    <linearGradient id="grad70" x1="0%" y1="0%" x2="100%" y2="0%">
      <stop offset="0%" stop-color="#5ce1ff"/>
      <stop offset="100%" stop-color="#c89cff"/>
    </linearGradient>
    <linearGradient id="grad60" x1="0%" y1="0%" x2="100%" y2="0%">
      <stop offset="0%" stop-color="#8cd4ff"/>
      <stop offset="100%" stop-color="#bc8cff"/>
    </linearGradient>
  </defs>
  
  <text x="400" y="340" text-anchor="middle" font-family="'JetBrains Mono', 'Fira Code', monospace" font-size="10" class="text-muted">▲ stack proficiency analysis complete</text>
</svg>