<svg width="560" height="430" viewBox="0 0 560 430" xmlns="http://www.w3.org/2000/svg" role="img" aria-label="Workflow status panel">
  <defs>
    <linearGradient id="border" x1="0" x2="1" y1="0" y2="1">
      <stop offset="0%" stop-color="#00f3ff"/>
      <stop offset="50%" stop-color="#bc8cff"/>
      <stop offset="100%" stop-color="#00ff9d"/>
    </linearGradient>
    <filter id="glow">
      <feGaussianBlur stdDeviation="3" result="blur"/>
      <feMerge>
        <feMergeNode in="blur"/>
        <feMergeNode in="SourceGraphic"/>
      </feMerge>
    </filter>
  </defs>
  <rect width="560" height="430" rx="18" fill="#0d1117"/>
  <rect x="1" y="1" width="558" height="428" rx="18" fill="none" stroke="url(#border)" stroke-width="1.5" opacity="0.78"/>
  <text x="44" y="36" fill="#00f3ff" font-family="monospace" font-size="14" font-weight="700">WORKFLOW CONTROL</text>
  <circle cx="490" cy="31" r="7" fill="#d29922" filter="url(#glow)"/>
  <text x="44" y="70" fill="#8b949e" font-family="monospace" font-size="12">WORKFLOW</text><circle cx="250" cy="66" r="5" fill="#00ff9d"/><text x="268" y="70" fill="#00ff9d" font-family="monospace" font-size="12">PRESENT</text>
  <text x="44" y="93" fill="#8b949e" font-family="monospace" font-size="12">DISPATCH</text><circle cx="250" cy="89" r="5" fill="#00ff9d"/><text x="268" y="93" fill="#00ff9d" font-family="monospace" font-size="12">OK</text>
  <text x="44" y="116" fill="#8b949e" font-family="monospace" font-size="12">SCHEDULE</text><circle cx="250" cy="112" r="5" fill="#00ff9d"/><text x="268" y="116" fill="#00ff9d" font-family="monospace" font-size="12">OK</text>
  <text x="44" y="139" fill="#8b949e" font-family="monospace" font-size="12">PERMISSIONS</text><circle cx="250" cy="135" r="5" fill="#00ff9d"/><text x="268" y="139" fill="#00ff9d" font-family="monospace" font-size="12">OK</text>
  <text x="44" y="162" fill="#8b949e" font-family="monospace" font-size="12">CONCURRENCY</text><circle cx="250" cy="158" r="5" fill="#00ff9d"/><text x="268" y="162" fill="#00ff9d" font-family="monospace" font-size="12">OK</text>
  <text x="44" y="185" fill="#8b949e" font-family="monospace" font-size="12">VALIDATE</text><circle cx="250" cy="181" r="5" fill="#00ff9d"/><text x="268" y="185" fill="#00ff9d" font-family="monospace" font-size="12">OK</text>
  <text x="44" y="208" fill="#8b949e" font-family="monospace" font-size="12">MANIFEST</text><circle cx="250" cy="204" r="5" fill="#00ff9d"/><text x="268" y="208" fill="#00ff9d" font-family="monospace" font-size="12">PRESENT</text>
  <text x="44" y="231" fill="#8b949e" font-family="monospace" font-size="12">HEALTH</text><circle cx="250" cy="227" r="5" fill="#d29922"/><text x="268" y="231" fill="#d29922" font-family="monospace" font-size="12">WATCH</text>
  <text x="44" y="254" fill="#8b949e" font-family="monospace" font-size="12">TELEMETRY</text><circle cx="250" cy="250" r="5" fill="#00ff9d"/><text x="268" y="254" fill="#00ff9d" font-family="monospace" font-size="12">PRESENT</text>
  <text x="44" y="277" fill="#8b949e" font-family="monospace" font-size="12">COLLECTOR</text><circle cx="250" cy="273" r="5" fill="#00ff9d"/><text x="268" y="277" fill="#00ff9d" font-family="monospace" font-size="12">OK</text>
  <text x="44" y="300" fill="#8b949e" font-family="monospace" font-size="12">LATEST</text><circle cx="250" cy="296" r="5" fill="#00ff9d"/><text x="268" y="300" fill="#00ff9d" font-family="monospace" font-size="12">COMPLETED</text>
  <text x="44" y="323" fill="#8b949e" font-family="monospace" font-size="12">RESULT</text><circle cx="250" cy="319" r="5" fill="#00ff9d"/><text x="268" y="323" fill="#00ff9d" font-family="monospace" font-size="12">SUCCESS</text>
  <text x="44" y="346" fill="#8b949e" font-family="monospace" font-size="12">RUNS</text><circle cx="250" cy="342" r="5" fill="#8b949e"/><text x="268" y="346" fill="#8b949e" font-family="monospace" font-size="12">10</text>
  <text x="44" y="382" fill="#8b949e" font-family="monospace" font-size="10">workflow:README Surface Sync · branch:main · sha:4316eac71fe0</text>
  <text x="44" y="404" fill="#484f58" font-family="monospace" font-size="10">trace:6901b15447e5 · source:0eed40a10e36437f</text>
</svg>
